PathFileType	4	(X/Y/Z)	C:/Users/opensim2020/Desktop/walking_exp_matlab/subject06_walking13_straight_01.trc	
DataRate	CameraRate	NumFrames	NumMarkers	Units	OrigDataRate	OrigDataStartFrame	OrigNumFrames	
100.00	100.00	5	50	mm	100.00	971	163	
Frame#	Time	LFHD			RFHD			LBHD			RBHD			C7			T10			CLAV			STRN			RBAK			LSHO			LUPA			LELB			LFRM			LWRA			LWRB			LFIN			RSHO			RUPA			RELB			RFRM			RWRA			RWRB			RFIN			LASI			RASI			LPSI			RPSI			LTHI			LKNE			LTIB			LANK			LHEE			LTOE			RTHI			RKNE			RTIB			RANK			RHEE			RTOE			*39			*40			*41			*42			*43			*44			*45			*46			*47			*48			*49			
		X1	Y1	Z1	X2	Y2	Z2	X3	Y3	Z3	X4	Y4	Z4	X5	Y5	Z5	X6	Y6	Z6	X7	Y7	Z7	X8	Y8	Z8	X9	Y9	Z9	X10	Y10	Z10	X11	Y11	Z11	X12	Y12	Z12	X13	Y13	Z13	X14	Y14	Z14	X15	Y15	Z15	X16	Y16	Z16	X17	Y17	Z17	X18	Y18	Z18	X19	Y19	Z19	X20	Y20	Z20	X21	Y21	Z21	X22	Y22	Z22	X23	Y23	Z23	X24	Y24	Z24	X25	Y25	Z25	X26	Y26	Z26	X27	Y27	Z27	X28	Y28	Z28	X29	Y29	Z29	X30	Y30	Z30	X31	Y31	Z31	X32	Y32	Z32	X33	Y33	Z33	X34	Y34	Z34	X35	Y35	Z35	X36	Y36	Z36	X37	Y37	Z37	X38	Y38	Z38	X39	Y39	Z39	X40	Y40	Z40	X41	Y41	Z41	X42	Y42	Z42	X43	Y43	Z43	X44	Y44	Z44	X45	Y45	Z45	X46	Y46	Z46	X47	Y47	Z47	X48	Y48	Z48	X49	Y49	Z49	X50	Y50	Z50	

123	1.220	-1044.82910	427.44666	1648.14087	-913.86096	418.31735	1636.54224	-1054.60669	289.31067	1610.78540	-925.62268	282.21741	1603.91821	-992.70154	271.47794	1444.86316	-980.66443	233.19864	1114.48633	-992.28864	380.29807	1365.06482	-993.51941	419.89841	1191.32886	-905.51929	197.19540	1275.38184	-1153.64758	320.67081	1395.36658	-1221.01660	276.60718	1198.60632	-1227.41357	243.84106	1090.70117	-1244.20068	231.35526	939.72473	-1192.86328	255.88167	815.29834	-1239.06689	202.47311	824.46198	-1230.35718	218.49641	734.58624	-832.06299	337.50275	1400.99097	-736.94019	336.83212	1203.93286	-720.58844	377.18005	1089.25049	-707.34387	441.38177	988.11249	-750.60474	552.62000	891.64587	-706.09418	509.15158	868.64661	-707.34833	577.48322	821.60236	-1083.94055	418.82242	960.76263	-866.84821	406.00787	960.35907	-1068.91345	259.13235	979.99146	-900.24036	257.14648	984.86890	-1158.24475	419.08554	647.69965	-1131.29602	478.90903	496.87390	-1127.08911	489.61777	242.32068	-1090.41357	526.57190	72.31583	-1039.31018	495.55423	51.37852	-1101.93213	671.93591	66.20428	-829.08594	316.73965	625.99854	-852.21686	296.50903	500.95862	-863.83167	185.39980	253.39595	-919.36584	130.45825	77.27269	-965.16284	86.91375	59.68269	-916.42804	277.73856	29.68816	-991.81299	329.53046	1698.48083																														 
124	1.230	-1045.01904	438.64154	1646.48474	-914.08478	429.37744	1634.80090	-1054.84998	300.40256	1609.21082	-925.91199	293.22757	1602.29407	-993.08740	282.39688	1443.23865	-981.44312	243.92316	1112.71729	-992.72382	391.28009	1363.41077	-993.81378	430.82123	1189.72693	-906.01221	207.73370	1273.90662	-1154.10291	331.59375	1393.79578	-1221.22290	285.82224	1197.55530	-1227.28967	251.98526	1090.02332	-1244.16052	237.14365	939.28864	-1193.10046	260.62308	814.45892	-1238.66956	206.77113	824.46478	-1230.17114	221.40648	734.29785	-832.45789	348.28168	1399.15588	-736.99768	348.27155	1202.36108	-720.38434	389.26370	1088.06177	-707.33038	455.35767	988.27618	-751.04614	568.54498	894.58698	-706.72528	525.78662	870.41412	-708.05859	595.31171	824.99933	-1084.07678	430.29550	959.21783	-866.87250	416.51831	958.79724	-1069.89294	270.58752	978.13550	-901.13324	267.80347	983.27240	-1159.01233	429.00446	645.32526	-1131.04651	489.38501	494.86462	-1127.07483	511.00052	241.32486	-1090.63782	556.00482	72.79630	-1039.88159	525.42664	50.70752	-1099.79968	702.25055	71.97736	-828.95367	325.61542	625.18854	-852.24908	303.96912	500.29269	-863.63293	189.25594	254.04059	-918.96246	131.16463	78.77374	-964.69495	87.25014	61.93184	-916.19080	278.09018	29.68737	-992.00879	340.64951	1696.85266																														 
125	1.240	-1045.24707	449.80542	1644.86377	-914.33459	440.44757	1633.10791	-1055.21313	311.55905	1607.62415	-926.27301	304.32581	1600.62720	-993.56396	293.35468	1441.59033	-982.38318	254.87799	1110.96008	-993.13409	402.24902	1361.81360	-994.18475	441.81616	1188.18811	-906.77466	218.49706	1272.16406	-1154.64758	342.61105	1392.23584	-1221.56482	295.42468	1196.52991	-1227.26404	260.38486	1089.27820	-1244.34509	243.72934	938.94629	-1193.44263	266.05072	813.58154	-1238.34143	211.65088	824.36853	-1230.06714	224.96181	733.98315	-832.92981	359.16086	1397.30579	-737.14740	359.47415	1200.73108	-720.30957	401.27197	1086.86572	-707.45007	469.00433	988.35541	-751.65314	584.04071	897.40625	-707.12793	542.02863	872.09674	-708.91144	612.34467	828.47852	-1084.17383	441.86298	957.77759	-867.17670	427.30194	957.57635	-1070.88538	281.93878	976.28729	-902.15167	278.47247	981.58118	-1160.05798	439.52979	643.27771	-1131.06824	499.93631	492.80280	-1127.10132	530.66766	240.50346	-1090.59204	583.22247	73.74986	-1040.15515	553.09241	50.56463	-1097.73218	730.08368	78.10793	-828.89008	334.70749	624.32953	-851.99500	312.80624	499.23181	-863.47638	193.52481	254.89777	-918.29572	132.05945	80.67805	-964.13043	87.85912	64.36696	-916.15570	278.32739	29.68078	-992.27472	351.79312	1695.23389																														 
126	1.250	-1045.55127	460.97516	1643.28699	-914.63513	451.62589	1631.52905	-1055.68811	322.77420	1606.14453	-926.73035	315.44830	1598.99597	-994.19757	304.52008	1440.01038	-983.45648	265.85278	1109.28760	-993.62421	413.34732	1360.27039	-994.63068	452.86960	1186.67664	-907.79913	229.46062	1270.36694	-1155.28027	353.77090	1390.71069	-1221.93860	305.30746	1195.47949	-1227.24768	269.19467	1088.48157	-1243.93579	250.72455	938.15570	-1193.84253	272.02216	812.68860	-1237.95703	217.43266	824.09784	-1230.09485	229.24362	733.61487	-833.46326	369.94031	1395.50513	-737.44879	370.67981	1199.18262	-720.26154	413.04849	1085.67932	-707.70636	482.29977	988.38202	-752.29962	598.93219	899.99207	-708.09125	557.39288	873.53448	-709.47461	629.17664	831.93445	-1084.36230	453.61316	956.49976	-867.33600	437.85593	956.32617	-1072.03674	293.53784	974.53137	-903.29156	289.23663	979.88947	-1161.11340	450.97299	641.59344	-1131.17261	510.56622	490.76324	-1126.90625	548.92065	239.81007	-1090.42346	608.08960	74.99694	-1040.26599	578.38782	50.79350	-1095.75977	755.28467	83.87797	-828.77405	344.25232	623.43579	-851.93903	321.80521	498.32587	-863.26868	198.31071	255.71571	-917.61627	133.15120	82.65288	-963.40857	88.68300	67.10835	-916.11841	278.55496	29.65810	-992.59436	362.97336	1693.61719																														 
127	1.260	-1045.88733	472.23688	1641.88416	-914.97632	462.74057	1629.91992	-1056.12390	334.04056	1604.64746	-927.22607	326.50677	1597.43591	-994.77570	315.42905	1438.54761	-984.58154	276.94608	1107.69336	-994.21692	424.54587	1358.77246	-995.09418	463.99539	1185.25916	-908.81299	240.28577	1268.85986	-1155.93079	365.08548	1389.25916	-1222.39722	315.38617	1194.44336	-1227.48779	278.37827	1087.76526	-1244.09839	258.36890	937.62823	-1194.34961	278.73672	811.98358	-1238.06543	223.71901	823.99878	-1230.24316	234.47020	733.35321	-834.08691	380.76749	1393.81982	-737.86768	381.76804	1197.70117	-720.44354	424.71411	1084.48889	-708.05817	495.40921	988.43048	-753.07758	613.28076	902.39075	-708.92041	572.35291	875.01624	-710.20575	644.98840	835.10229	-1084.58643	465.39255	955.32684	-867.60547	448.72412	955.19513	-1073.27673	305.21552	972.84357	-904.56952	300.05026	978.20593	-1162.00171	463.18146	640.23676	-1131.28308	521.40143	488.98178	-1126.53589	565.90948	239.17732	-1090.08875	630.20197	76.18630	-1040.20764	600.98688	51.14904	-1093.94263	777.53741	88.70866	-828.80237	354.25238	622.42053	-852.02759	331.17883	497.38297	-863.05823	203.47134	256.64542	-917.04077	134.36028	84.81482	-962.46661	89.51867	70.36024	-915.95923	278.74155	29.74205	-992.97241	374.16586	1692.14282																														 
